<svg width="60" height="60" viewBox="0 0 16 16" fill="none" xmlns="http://www.w3.org/2000/svg">
<path d="M2.41566 0C1.08119 0 0 1.08124 0 2.41576V13.5829C0 14.9174 1.08119 16 2.41566 16H13.583C14.9174 16 16 14.9174 16 13.5829V2.41576C16 1.08124 14.9174 0 13.583 0H2.41566ZM3.65481 2.7099C4.47728 2.7099 4.98383 3.24984 4.99949 3.96C4.99949 4.6545 4.47728 5.21009 3.63915 5.21009H3.62349C2.816 5.21009 2.29447 4.6545 2.29447 3.96C2.29447 3.24984 2.83166 2.7099 3.65481 2.7099ZM10.7438 6.02783C12.3234 6.02783 13.5149 7.06005 13.5149 9.27971V13.4331H11.1115V9.55887C11.1115 8.58522 10.7574 7.92476 9.89277 7.92476C9.22553 7.92476 8.83064 8.36734 8.65362 8.8031C8.59234 8.9597 8.57872 9.17077 8.57872 9.38865V13.4331H6.17532C6.17532 13.4331 6.20255 6.87621 6.17532 6.19533H8.57872V7.21665C8.89872 6.72641 9.47064 6.02783 10.7438 6.02783ZM2.43677 6.19533H4.84085V13.4331H2.43677V6.19533Z" fill="black"/>
</svg>
